<svg id="Layer_1" data-name="Layer 1" xmlns="http://www.w3.org/2000/svg" viewBox="0 0 256 68"><defs><style>.cls-1{fill:#ffc115;}</style></defs><title>bing</title><path class="cls-1" d="M94.76,38.91q0,6.8-3.34,10.93a11.05,11.05,0,0,1-9,4.15,9,9,0,0,1-8.13-4.58H74.14v3.91H69.79V13.14l4.34,1.34V30.94h0.11a10.26,10.26,0,0,1,9.38-5.44,10.08,10.08,0,0,1,8.11,3.61c2,2.41,3,5.68,3,9.81m-4.46,0a11.08,11.08,0,0,0-2.06-7,6.86,6.86,0,0,0-5.71-2.62,7.72,7.72,0,0,0-6.06,2.6,9.57,9.57,0,0,0-2.34,6.62v3.8A7.9,7.9,0,0,0,76.38,48a7.39,7.39,0,0,0,5.51,2.31,7.24,7.24,0,0,0,6.17-3c1.49-2,2.24-4.8,2.24-8.37"/><path class="cls-1" d="M105.55,17a2.66,2.66,0,0,1-.84,2,2.82,2.82,0,0,1-2,.81,2.79,2.79,0,0,1-2-.78,2.88,2.88,0,0,1,0-4,2.68,2.68,0,0,1,2-.83,2.76,2.76,0,0,1,2,.82,2.68,2.68,0,0,1,.83,2"/><rect class="cls-1" x="100.46" y="26.18" width="4.35" height="27.14"/><path class="cls-1" d="M134.53,53.32h-4.35V37.84q0-8.63-6.3-8.62a6.85,6.85,0,0,0-5.36,2.43,9,9,0,0,0-2.16,6.19V53.32H112V26.18h4.35v4.51h0.09a9.79,9.79,0,0,1,8.92-5.19,8.22,8.22,0,0,1,6.81,2.93c1.57,1.94,2.35,4.71,2.35,8.27V53.32Z"/><path class="cls-1" d="M165.31,51.14q0,14.91-14.31,14.92a19.4,19.4,0,0,1-8.79-1.9l1.13-3.75a15.16,15.16,0,0,0,7.58,2q10.05,0,10-10.62v-3h-0.11A10.17,10.17,0,0,1,151.54,54a10.61,10.61,0,0,1-5.86-1.66,10.93,10.93,0,0,1-4-4.68,16.92,16.92,0,0,1-1.39-7c0-4.62,1.13-8.31,3.38-11a11.14,11.14,0,0,1,9-4.1,8.84,8.84,0,0,1,8.14,4.42H161V26.18h4.34v25ZM161,41V37a7.61,7.61,0,0,0-2.24-5.56,7.31,7.31,0,0,0-5.38-2.27,7.51,7.51,0,0,0-6.32,3c-1.52,2-2.27,4.7-2.27,8.2a11.2,11.2,0,0,0,2.18,7.17,7,7,0,0,0,5.79,2.73,7.62,7.62,0,0,0,5.95-2.59A9.56,9.56,0,0,0,161,41"/><polygon class="cls-1" points="19.04 19.08 25.38 32.92 35.03 37.31 0 55.84 14.45 66 50.76 44.38 50.76 28.84 19.04 19.08"/><polygon class="cls-1" points="14.45 6.97 0 2.57 0 55.84 14.45 42.8 14.45 6.97"/><path class="cls-1" d="M200.57,53.27V47.82h-0.11a10.53,10.53,0,0,1-3.82,4.46,9.75,9.75,0,0,1-5.49,1.67,8.64,8.64,0,0,1-6.08-2.13,7.18,7.18,0,0,1-2.33-5.56q0-7.15,9.44-8.62l8.37-1.25q0-8.77-6.59-8.78a13.43,13.43,0,0,0-8.74,3.62V28.28a13.6,13.6,0,0,1,4.16-2,15.93,15.93,0,0,1,4.82-.86A8.2,8.2,0,0,1,200.74,28Q203,30.57,203,35.56V53.27h-2.44Zm-15.23-7.12A5.21,5.21,0,0,0,187,50.2a6.31,6.31,0,0,0,4.43,1.5A8.37,8.37,0,0,0,198,48.77a10.93,10.93,0,0,0,2.59-7.49V38.62l-7.49,1.09q-4.55.68-6.14,2.08a5.49,5.49,0,0,0-1.59,4.35"/><path class="cls-1" d="M230.54,53.27V48.33h-0.11a10.14,10.14,0,0,1-4,4.09,11.38,11.38,0,0,1-5.83,1.52,10.24,10.24,0,0,1-8.24-3.73q-3.13-3.72-3.13-10.07a18,18,0,0,1,1.55-7.6,12.37,12.37,0,0,1,4.42-5.27,11.53,11.53,0,0,1,6.5-1.89q6.12,0,8.72,5h0.11V13H233v40.3h-2.44Zm0-16.56a9,9,0,0,0-2.48-6.52,8.5,8.5,0,0,0-6.4-2.58,8.79,8.79,0,0,0-7.1,3.35q-2.77,3.36-2.77,9,0,5.4,2.42,8.59a7.81,7.81,0,0,0,6.56,3.19,9.44,9.44,0,0,0,7.07-2.76,9.82,9.82,0,0,0,2.69-7.16V36.71Z"/><path class="cls-1" d="M240.29,52.07V49.13a10.55,10.55,0,0,0,3.23,1.82,10.05,10.05,0,0,0,3.52.76q6.4,0,6.41-5.24a4,4,0,0,0-1.29-3,16.49,16.49,0,0,0-4.69-2.75,16.1,16.1,0,0,1-5.39-3.36,6.44,6.44,0,0,1-1.68-4.59,6.6,6.6,0,0,1,2.51-5.33,9.47,9.47,0,0,1,6.28-2.09,12,12,0,0,1,6,1.43v2.77a11.5,11.5,0,0,0-6.28-2A6.45,6.45,0,0,0,244.62,29,4.52,4.52,0,0,0,243,32.65a5,5,0,0,0,.49,2.44,5.16,5.16,0,0,0,1.67,1.69,21.31,21.31,0,0,0,3.44,1.79,18.93,18.93,0,0,1,5.9,3.59A6,6,0,0,1,256,46.47a6.66,6.66,0,0,1-2.49,5.41,10.08,10.08,0,0,1-6.65,2.07,11,11,0,0,1-6.57-1.87"/></svg>