<?xml version="1.0" encoding="utf-8"?>
<!-- Generator: Adobe Illustrator 19.2.1, SVG Export Plug-In . SVG Version: 6.00 Build 0)  -->
<svg version="1.1" id="layer" xmlns="http://www.w3.org/2000/svg" xmlns:xlink="http://www.w3.org/1999/xlink" x="0px" y="0px"
	 viewBox="0 0 652 652" style="enable-background:new 0 0 652 652;" xml:space="preserve">
<style type="text/css">
	.st0{fill:#3B5998;}
	.st1{fill:#FFFFFF;}
</style>
<path class="st0" d="M621.7,432.9c0,6.5-5.3,11.8-11.8,11.8H33.5c-6.5,0-11.8-5.3-11.8-11.8V209.9c0-6.5,5.3-11.8,11.8-11.8h576.4
	c6.5,0,11.8,5.3,11.8,11.8V432.9z"/>
<polygon class="st1" points="291.9,256.5 298.7,256.5 298.7,309.7 292.4,309.7 292.4,268.9 280.7,295.7 274.4,295.7 262.7,268.9 
	262.7,309.7 256.4,309.7 256.4,256.5 263.1,256.5 277.5,289.2 "/>
<path class="st1" d="M339,309.7h-5.7l-0.4-3.3c-2.2,1.8-7.7,4.1-12.6,4.1c-8.5,0-11.8-5-11.8-12.4c0-7.8,3.9-11.9,12.3-11.9
	c5,0,9.4,1.3,11.5,2.2v-6.1c0-5.1-1.6-7.3-7.5-7.3c-3.5,0-7,0.5-10.6,1.5l-1-5.5c3.4-1.1,8.2-1.8,12.3-1.8c9.2,0,13.5,4,13.5,12.7
	V309.7z M332.3,293c-2.2-0.7-6.6-1.7-10.6-1.7c-5.4,0-6.7,2.6-6.7,7c0,4.9,1.6,7.2,6.2,7.2c4.8,0,8.8-1.8,11-3.4V293z"/>
<path class="st1" d="M369.3,275.7c-4.5,0.9-9,2.4-12.4,4.2v29.9h-6.7v-39.7h5.5l0.7,4.6c2.4-2.4,6.8-4.7,12-5.2L369.3,275.7z"/>
<polygon class="st1" points="376.3,309.7 376.3,253.3 383,253.3 383,288.4 396.8,270.1 404.7,270.1 389.5,289.7 405.3,309.7 
	397.4,309.7 383,290.9 383,309.7 "/>
<path class="st1" d="M416,292.9c0.4,8.4,2.5,12.4,10.6,12.4c4.2,0,8.6-1,11.7-2.2l1,5.1c-3.3,1.4-8.5,2.4-12.8,2.4
	c-14.3,0-17.2-9.8-17.2-20.9c0-11.4,3.8-20.4,15.9-20.4c10.8,0,15.3,7.6,15.3,17.1v6.5H416z M416,287.6h18v-1.4
	c0-7.4-2.3-11.8-8.9-11.8C417.7,274.3,416.1,279.7,416,287.6"/>
<path class="st1" d="M470.4,309.3c-1.7,0.6-5.6,1.2-8.2,1.2c-6.8,0-9.7-3.8-9.7-9.9v-25.1h-6.9v-5.4h6.9v-9.7l6.7-1v10.6h11.3
	l-0.6,5.4h-10.7v24.8c0,3.7,0.9,4.8,4.6,4.8c1.6,0,3.9-0.3,6-0.8L470.4,309.3z"/>
<path class="st1" d="M481.9,254c2.6,0,4.5,1.9,4.5,4.5c0,2.6-1.8,4.5-4.5,4.5c-2.6,0-4.5-1.9-4.5-4.5
	C477.5,255.9,479.3,254,481.9,254 M478.6,270.1h6.7v39.7h-6.7V270.1z"/>
<path class="st1" d="M520.7,309.7v-28.9c0-3.6-1.5-5.4-5.4-5.4c-4.2,0-8.3,1.4-11.2,2.6v31.7h-6.7v-39.7h5.4l0.6,3.5
	c3.2-2.2,8.2-4.3,13.6-4.3c6.8,0,10.5,3.8,10.5,10.9v29.6H520.7z"/>
<path class="st1" d="M557.3,270.1h12.6v4.6l-5.3,1c1,1.8,1.5,4.2,1.5,6.7c0,8.2-5.7,13.1-14.8,13.1c-1.5,0-3-0.1-4.2-0.4
	c-0.9,0.8-1.8,1.9-1.8,3.7c0,1.9,1,2.8,3.6,2.8h9c7,0,11.3,4.4,11.3,10.6c0,8.5-7.5,12.7-18.2,12.7c-10.4,0-16-3.2-16-10.7
	c0-4.8,3.2-7,6.3-8.5c-1.7-1.2-2.6-3-2.6-5.3c0-3.6,2.5-5.4,4.6-6.6c-4.3-2.1-6.8-6.1-6.8-11.4c0-8.5,4.9-13.1,14.7-13.1
	C553.5,269.3,555.5,269.6,557.3,270.1 M544.7,307.1c-1.8,1.5-3.4,3.4-3.4,6.6c0,4.6,3.9,6.3,9.9,6.3c7,0,11.3-1.8,11.3-7.1
	c0-3-1.7-5.5-6-5.5h-8.6C546.7,307.4,545.2,307.3,544.7,307.1 M551.3,274.1c-5.7,0-8.4,2.3-8.4,8.3s3.1,8.3,8.4,8.3
	c5.3,0,8.5-2.6,8.5-8.3C559.8,276.6,556.8,274.1,551.3,274.1"/>
<path class="st1" d="M263.3,369.9v19.8h-6.9v-53.3h15.9c12.3,0,16.8,7,16.8,16.7c0,9.7-4.5,16.7-16.8,16.7H263.3z M263.3,364.3h8.8
	c8,0,10.2-4.6,10.2-11.1c0-6.6-2.2-11.1-10.2-11.1h-8.8V364.3z"/>
<path class="st1" d="M323,389.7h-5.7l-0.4-3.3c-2.2,1.8-7.7,4.1-12.6,4.1c-8.5,0-11.8-5-11.8-12.4c0-7.8,3.9-11.9,12.3-11.9
	c4.9,0,9.4,1.3,11.5,2.2v-6.1c0-5.1-1.6-7.3-7.5-7.3c-3.5,0-7,0.5-10.6,1.5l-1-5.5c3.4-1.1,8.2-1.8,12.3-1.8c9.2,0,13.5,4,13.5,12.7
	V389.7z M316.3,373c-2.2-0.7-6.6-1.7-10.6-1.7c-5.4,0-6.7,2.6-6.7,7c0,4.9,1.6,7.2,6.2,7.2c4.8,0,8.8-1.8,11-3.4V373z"/>
<path class="st1" d="M353.3,355.7c-4.5,0.9-9,2.4-12.4,4.2v29.9h-6.7v-39.7h5.5l0.7,4.6c2.4-2.4,6.8-4.7,12-5.2L353.3,355.7z"/>
<path class="st1" d="M380.7,389.3c-1.7,0.6-5.6,1.2-8.2,1.2c-6.8,0-9.7-3.8-9.7-9.9v-25.1H356v-5.4h6.9v-9.7l6.7-1v10.6h11.3
	l-0.6,5.4h-10.7v24.8c0,3.7,0.9,4.8,4.6,4.8c1.6,0,3.9-0.3,6-0.8L380.7,389.3z"/>
<path class="st1" d="M412.3,389.7v-28.9c0-3.6-1.5-5.4-5.4-5.4c-4.2,0-8.3,1.4-11.2,2.6v31.7h-6.7v-39.7h5.4l0.6,3.5
	c3.2-2.2,8.2-4.3,13.6-4.3c6.8,0,10.5,3.8,10.5,10.9v29.6H412.3z"/>
<path class="st1" d="M434.7,372.9c0.4,8.4,2.5,12.4,10.6,12.4c4.2,0,8.6-1,11.7-2.2l1,5.1c-3.3,1.4-8.5,2.4-12.8,2.4
	c-14.3,0-17.2-9.8-17.2-20.9c0-11.4,3.8-20.4,15.9-20.4c10.8,0,15.3,7.6,15.3,17.1v6.5H434.7z M434.7,367.6h18v-1.4
	c0-7.4-2.3-11.8-8.9-11.8C436.3,354.3,434.7,359.7,434.7,367.6"/>
<path class="st1" d="M487.7,355.7c-4.5,0.9-9,2.4-12.4,4.2v29.9h-6.7v-39.7h5.5l0.7,4.6c2.4-2.4,6.8-4.7,12-5.2L487.7,355.7z"/>
<path class="st1" d="M210.3,248.1H79.8c-4.5,0-8.1,3.6-8.1,8.1v130.5c0,4.5,3.6,8.1,8.1,8.1H150v-56.8h-19.1v-22.1H150v-16.3
	c0-18.9,11.6-29.3,28.5-29.3c8.1,0,15.1,0.6,17.1,0.9v19.8l-11.7,0c-9.2,0-11,4.4-11,10.8v14.1h21.9l-2.9,22.1h-19.1v56.8h37.4
	c4.5,0,8.1-3.6,8.1-8.1V256.2C218.3,251.7,214.7,248.1,210.3,248.1"/>
</svg>
